<svg version="1.1" id="Layer_1" xmlns="http://www.w3.org/2000/svg" xmlns:xlink="http://www.w3.org/1999/xlink" x="0px" y="0px" viewBox="0 0 106.6 106.6" style="enable-background:new 0 0 106.6 106.6;" xml:space="preserve">
<style type="text/css">
	.st0{fill:url(#SVGID_1_);}
	.st1{fill:url(#SVGID_2_);}
	.st2{fill:url(#SVGID_3_);}
	.st3{fill:url(#SVGID_4_);}
	.st4{fill:url(#SVGID_5_);}
	.st5{fill:url(#SVGID_6_);}
	.st6{fill:url(#SVGID_7_);}
	.st7{fill:url(#SVGID_8_);}
	.st8{fill:url(#SVGID_9_);}
	.st9{fill:url(#SVGID_10_);}
	.st10{fill:#494949;}
	.st11{fill:#505050;}
	.st12{fill:#515151;}
	.st13{fill:#4A4A4A;}
	.st14{fill:#4D4D4D;}
	.st15{fill:#535353;}
	.st16{fill:#525252;}
	.st17{fill:#4F4F4F;}
	.st18{fill:#4C4C4C;}
	.st19{fill:#4E4E4E;}
	.st20{fill:#4B4B4B;}
	.st21{fill:#FFFFFF;}
	.st22{fill:url(#SVGID_11_);}
	.st23{fill:url(#SVGID_12_);}
	.st24{fill:url(#SVGID_13_);}
	.st25{fill:url(#SVGID_14_);}
	.st26{fill:url(#SVGID_15_);}
	.st27{fill:url(#SVGID_16_);}
	.st28{fill:#079EE3;}
	.st29{fill:#D63777;}
	.st30{fill:#003263;}
	.st31{fill:#FEFEFE;}
	.st32{fill:#F9F9F9;}
	.st33{fill:#FAFAFA;}
	.st34{fill:#F8F8F8;}
	.st35{fill:#EDEDED;}
	.st36{fill:#FCFCFC;}
	.st37{fill:#FDFDFD;}
	.st38{fill:#FBFBFB;}
	.st39{fill:#CFCFCF;}
	.st40{fill:#545454;}
	.st41{fill:#9D9D9D;}
	.st42{fill:#E7E7E7;}
	.st43{fill:#555555;}
	.st44{fill:#F5F5F5;}
	.st45{fill:#F4F4F4;}
	.st46{fill:#EBEBEB;}
	.st47{fill:#DFDFDF;}
	.st48{fill:#DADADA;}
	.st49{fill:#E3E3E3;}
	.st50{fill:#F1F1F1;}
	.st51{fill:#EEEEEE;}
	.st52{fill:#ECECEC;}
	.st53{fill:#1B83B8;}
	.st54{fill:#F7AD28;}
	.st55{fill:#91BF3B;}
	.st56{fill:#91BE3F;}
	.st57{fill:#033661;}
</style>
<g>
<path class="st10" d="M57.9,39.8c-1.2,0.2-2.3,0.9-2.1,2.3c0.3,2.2,1.7,3.8,3.9,4.3c1.4,0.3,2.3-0.6,2.5-2
		C62.4,42.9,59.5,39.8,57.9,39.8z" id="id_101" style="fill: rgb(255, 255, 255);"></path>
<path class="st10" d="M56.6,36.6c0-3-1.9-5.7-3.3-5.6c-1.6,0.1-2.6,1.2-2.2,2.7c0.5,1.9,0.6,4.4,3.4,4.4
		C55.8,38.1,56.6,37.1,56.6,36.6z" id="id_102" style="fill: rgb(255, 255, 255);"></path>
<path class="st10" d="M54.1,25.1c-0.2-1.8,0.1-4-2.6-3.9c-1.9,0-2.3,1.4-2.3,3.1c0.1,1.9,0,4,2.4,4.2
		C53.7,28.6,54.2,26.9,54.1,25.1z" id="id_103" style="fill: rgb(255, 255, 255);"></path>
<path class="st10" d="M92.6,16.1C84.7,6.9,71.5,4.2,60.7,9.9c-5,2.7-9.8,2.6-14.8,0C35.2,4.3,21.8,6.9,14,16.1
		c-7.9,9.4-8.4,22.9-0.7,32.4c4.7,5.8,6.8,12,5.7,18.6c-1,11.5,2.1,20.9,9.8,28.7c2.7,2.8,5.6,4.8,9.7,3.2c4-1.7,4.7-5,4.8-9
		c0.1-7.6,1.1-15.1,4.4-22.1c1.1-2.4,2.3-5.4,5.4-5.4c3,0,4.3,3,5.4,5.4c3.3,7.1,4.3,14.7,4.4,22.4c0,3.9,0.9,7.1,4.8,8.6
		c3.9,1.6,6.8-0.2,9.5-2.9c7.6-7.6,11.2-16.8,10.1-27.5c-0.8-7.6,1.1-14.1,5.9-20.1C100.9,38.9,100.5,25.4,92.6,16.1z M82.8,69.6
		c1,8.8-2.3,16.5-8.5,22.9c-1.3,1.3-2.5,2.9-4.7,2.1c-2.2-0.8-1.9-2.9-1.9-4.7c-0.1-7.4-1.1-14.6-3.7-21.5c-1.1-3-2.5-5.8-4.9-8.1
		c-3.6-3.5-8.1-3.5-11.7,0c-3.4,3.4-5,7.8-6.2,12.3c-1.6,5.8-2.4,11.7-2.3,17.7c0,1.7,0,3.6-2,4.3c-1.8,0.6-3-0.5-4.1-1.7
		c-6.1-5.9-9.1-13.1-9.2-20.9c0.2-3.7,0.7-6.8,0.6-9.8c-0.3-5.9-2.4-11.1-6.2-15.7c-7.2-8.8-7-19.8,0.4-28c7-7.9,18.6-9.2,27.9-3.1
		c1.4,0.9,2.7,1,4.4,1.1c5.6,0.4,10.4-1.5,15.4-3.7c8.5-3.6,18.6-0.1,24.1,7.4c5.5,7.4,5.8,17.6-0.1,24.9
		C84,52.5,81.7,60.3,82.8,69.6z" id="id_104" style="fill: rgb(255, 255, 255);"></path>
<path class="st10" d="M75.3,50.5c-1.5-0.1-2.7,0.5-2.7,2.1c0.1,2.8,2.5,2.5,4.3,2.8c1.7,0.3,3.1-0.6,2.9-2.3
		C79.5,50.4,77.1,50.8,75.3,50.5z" id="id_105" style="fill: rgb(255, 255, 255);"></path>
<path class="st10" d="M65.6,46.4c-1.5,0.3-2.5,1.1-2.3,2.4c0.4,2.4,2.6,3.1,4.6,3.5c1.5,0.3,2.7-0.9,2.4-2.4
		C69.7,47.6,67.3,47.3,65.6,46.4z" id="id_106" style="fill: rgb(255, 255, 255);"></path>
</g>
</svg>